<svg width="16" height="16" viewBox="0 0 16 16" xmlns="http://www.w3.org/2000/svg" fill="whitesmoke">
  <path d="M10 5.02c-.123-.036-.19-.086-.453-.136-.44-.084-.88-.134-1.297-.134C6.917 4.75 6 5.274 6 6.5c0 1.11.527 1.52 1.83 1.96.005 0 .005 0 .01.003C8.776 8.78 9 8.956 9 9.5c0 .524-.396.75-1.25.75-.348 0-.728-.043-1.11-.116-.23-.044-.407-.087-.503-.115l-.274.96c.123.036.328.086.59.136.44.084.88.134 1.297.134 1.333 0 2.25-.524 2.25-1.75 0-1.124-.533-1.543-1.84-1.984l-.01-.004C7.22 7.198 7 7.027 7 6.5c0-.524.396-.75 1.25-.75.348 0 .728.043 1.11.116.23.044.407.087.503.115L10 5.02z"/>
  <path d="M2.167 2.17v11.66c0-.002.005.003.003.003h11.66c-.002 0 .003-.005.003-.003V2.17c0 .002-.005-.003-.003-.003H2.17c.002 0-.003.005-.003.003zM2.17 1h11.66c.646 0 1.17.532 1.17 1.17v11.66c0 .646-.532 1.17-1.17 1.17H2.17C1.524 15 1 14.468 1 13.83V2.17C1 1.524 1.532 1 2.17 1z"/>
</svg>
